<svg width="27" height="28" viewBox="0 0 27 28" fill="none" xmlns="http://www.w3.org/2000/svg">
<g clip-path="url(#clip0_487_1342)">
<g filter="url(#filter0_d_487_1342)">
<path d="M26.1562 13.9999C26.1582 11.8717 25.6235 9.77743 24.6015 7.91069C23.5795 6.04394 22.1034 4.46504 20.3095 3.32002C18.5156 2.17499 16.4619 1.50081 14.3384 1.35983C12.2149 1.21886 10.0901 1.61563 8.1606 2.51346C6.23109 3.4113 4.55913 4.78119 3.29936 6.49646C2.03959 8.21172 1.23269 10.217 0.953296 12.3267C0.6739 14.4365 0.931026 16.5826 1.70089 18.5667C2.47076 20.5507 3.72851 22.3086 5.35781 23.6777C7.63657 25.5982 10.5199 26.6529 13.5 26.6562C15.1147 26.6545 16.7136 26.3393 18.2081 25.728C19.1799 26.4099 20.3605 26.7286 21.5434 26.6284C22.7264 26.5281 23.8365 26.0153 24.6797 25.1796C25.5154 24.3364 26.0282 23.2263 26.1285 22.0434C26.2287 20.8604 25.91 19.6799 25.2281 18.708C25.8392 17.2135 26.1544 15.6146 26.1562 13.9999ZM10.125 15.6874C8.78234 15.6874 7.49467 16.2208 6.54527 17.1702C5.59587 18.1196 5.0625 19.4073 5.0625 20.7499V20.9777C3.93642 19.6221 3.15357 18.015 2.78024 16.2927C2.4069 14.5704 2.45407 12.7834 2.91774 11.0832C3.38142 9.38292 4.24795 7.81943 5.44397 6.52506C6.63999 5.2307 8.13029 4.24358 9.78868 3.64728C11.4471 3.05098 13.2247 2.86305 14.9712 3.09942C16.7176 3.33578 18.3813 3.98947 19.8216 5.00515C21.2618 6.02082 22.4361 7.36857 23.245 8.93428C24.0539 10.5 24.4737 12.2376 24.4687 13.9999C24.466 15.1469 24.2809 16.2861 23.9203 17.3749C23.332 16.9775 22.6666 16.7082 21.9674 16.5846C21.2682 16.4611 20.5508 16.486 19.8619 16.6577C18.9943 16.0258 17.9483 15.686 16.875 15.6874H10.125ZM23.4816 23.9815C22.87 24.5911 22.048 24.9431 21.1848 24.9651C20.3216 24.9871 19.4827 24.6773 18.8409 24.0996L18.7059 23.9815C18.5449 23.8193 18.4007 23.6412 18.2756 23.4499C18.2334 23.3824 18.1997 23.3065 18.1659 23.239C17.7794 22.6054 17.6222 21.8583 17.7205 21.1226C17.8187 20.3869 18.1666 19.7073 18.7059 19.1974C19.3408 18.5677 20.1996 18.2157 21.0937 18.2187C21.5385 18.2172 21.9792 18.3037 22.3904 18.4731C22.8016 18.6425 23.1753 18.8915 23.49 19.2059L23.6419 19.383C24.2018 20.0277 24.4965 20.8605 24.4668 21.7138C24.437 22.5671 24.085 23.3774 23.4816 23.9815Z" fill="#16252D"/>
</g>
<path d="M13.5 14C15.83 14 17.7188 12.1112 17.7188 9.78125C17.7188 7.4513 15.83 5.5625 13.5 5.5625C11.17 5.5625 9.28125 7.4513 9.28125 9.78125C9.28125 12.1112 11.17 14 13.5 14Z" fill="#16252D"/>
<path d="M23.2872 20.3281C23.2005 20.1694 23.0652 20.0428 22.9011 19.9669C22.7371 19.8909 22.553 19.8697 22.3759 19.9062C22.2244 19.7875 22.0568 19.6909 21.8781 19.6194C21.819 19.4565 21.7111 19.3157 21.5692 19.2163C21.4273 19.1168 21.2583 19.0635 21.085 19.0635C20.9117 19.0635 20.7426 19.1168 20.6007 19.2163C20.4588 19.3157 20.351 19.4565 20.2919 19.6194C20.1132 19.6909 19.9456 19.7875 19.794 19.9062C19.6246 19.8776 19.4505 19.9014 19.295 19.9744C19.1394 20.0474 19.0099 20.1661 18.9236 20.3147C18.8374 20.4633 18.7986 20.6347 18.8124 20.806C18.8262 20.9773 18.892 21.1402 19.0009 21.2731C18.9749 21.4635 18.9749 21.6565 19.0009 21.8469C18.8825 21.978 18.8081 22.143 18.7885 22.3186C18.7688 22.4942 18.8047 22.6715 18.8912 22.8256C18.9656 22.9544 19.0726 23.0612 19.2015 23.1353C19.3304 23.2094 19.4766 23.2481 19.6253 23.2475H19.8025C19.9518 23.365 20.1164 23.4615 20.2919 23.5344C20.3526 23.6944 20.4606 23.8323 20.6015 23.9295C20.7424 24.0268 20.9095 24.0789 21.0808 24.0789C21.252 24.0789 21.4191 24.0268 21.5601 23.9295C21.701 23.8323 21.8089 23.6944 21.8697 23.5344C22.0451 23.4615 22.2098 23.365 22.359 23.2475H22.5362C22.6849 23.2481 22.8311 23.2094 22.96 23.1353C23.0889 23.0612 23.196 22.9544 23.2703 22.8256C23.3568 22.6715 23.3928 22.4942 23.3731 22.3186C23.3534 22.143 23.2791 21.978 23.1606 21.8469C23.1866 21.6565 23.1866 21.4635 23.1606 21.2731C23.2745 21.1467 23.3476 20.9888 23.3702 20.8202C23.3927 20.6516 23.3638 20.48 23.2872 20.3281ZM20.7559 21.889C20.7164 21.8498 20.685 21.8032 20.6636 21.7518C20.6422 21.7004 20.6311 21.6452 20.6311 21.5895C20.6311 21.5338 20.6422 21.4787 20.6636 21.4273C20.685 21.3759 20.7164 21.3292 20.7559 21.29C20.7951 21.2504 20.8418 21.2191 20.8932 21.1976C20.9446 21.1762 20.9998 21.1652 21.0555 21.1652C21.1111 21.1652 21.1663 21.1762 21.2177 21.1976C21.2691 21.2191 21.3158 21.2504 21.355 21.29C21.3945 21.3292 21.4259 21.3759 21.4473 21.4273C21.4687 21.4787 21.4798 21.5338 21.4798 21.5895C21.4798 21.6452 21.4687 21.7004 21.4473 21.7518C21.4259 21.8032 21.3945 21.8498 21.355 21.889C21.3158 21.9286 21.2691 21.96 21.2177 21.9814C21.1663 22.0028 21.1111 22.0138 21.0555 22.0138C20.9998 22.0138 20.9446 22.0028 20.8932 21.9814C20.8418 21.96 20.7951 21.9286 20.7559 21.889Z" fill="#16252D"/>
</g>
<defs>
<filter id="filter0_d_487_1342" x="0.84375" y="1.33203" width="25.3125" height="26.3242" filterUnits="userSpaceOnUse" color-interpolation-filters="sRGB">
<feFlood flood-opacity="0" result="BackgroundImageFix"/>
<feColorMatrix in="SourceAlpha" type="matrix" values="0 0 0 0 0 0 0 0 0 0 0 0 0 0 0 0 0 0 127 0" result="hardAlpha"/>
<feOffset dy="1"/>
<feComposite in2="hardAlpha" operator="out"/>
<feColorMatrix type="matrix" values="0 0 0 0 0.968627 0 0 0 0 0.870588 0 0 0 0 0.67451 0 0 0 1 0"/>
<feBlend mode="normal" in2="BackgroundImageFix" result="effect1_dropShadow_487_1342"/>
<feBlend mode="normal" in="SourceGraphic" in2="effect1_dropShadow_487_1342" result="shape"/>
</filter>
<clipPath id="clip0_487_1342">
<rect width="27" height="27" fill="white" transform="translate(0 0.5)"/>
</clipPath>
</defs>
</svg>
