<svg width="197" height="36" viewBox="0 0 197 36" fill="none" xmlns="http://www.w3.org/2000/svg">
<g id="logo" clip-path="url(#clip0_574_1199)">
<path id="Vector" d="M49.1613 9.90076C53.1758 9.90076 56.1789 11.9689 57.5756 15.3825L54.6069 16.5454C53.6299 13.5326 51.4283 12.6237 49.1957 12.6237C46.9631 12.6237 45.5286 13.4968 45.5286 15.0569C45.5286 16.617 46.8565 17.236 49.2301 17.6725L50.6955 17.9624C54.3626 18.6172 57.3623 19.705 57.3623 23.2259C57.3623 26.7468 54.4658 28.747 50.2415 28.747C46.0171 28.747 42.7009 26.6788 41.4453 22.8645L44.4485 21.8125C45.2156 24.9005 47.627 26.024 50.1727 26.024C52.7183 26.024 54.1528 24.8969 54.1528 23.4084C54.1528 21.8089 52.7561 21.3008 50.2415 20.8679L48.7416 20.578C45.0745 19.8517 42.3535 18.3989 42.3535 15.1678C42.3535 11.9367 45.1468 9.90434 49.1613 9.90434V9.90076Z" fill="white"/>
<path id="Vector_2" d="M110.608 9.90076C114.622 9.90076 117.625 11.9689 119.022 15.3825L116.053 16.5454C115.076 13.5326 112.875 12.6237 110.642 12.6237C108.409 12.6237 106.975 13.4968 106.975 15.0569C106.975 16.617 108.303 17.236 110.676 17.6725L112.142 17.9624C115.809 18.6172 118.809 19.705 118.809 23.2259C118.809 26.7468 115.912 28.747 111.688 28.747C107.463 28.747 104.147 26.6788 102.892 22.8645L105.895 21.8125C106.662 24.9005 109.07 26.024 111.619 26.024C114.168 26.024 115.599 24.8969 115.599 23.4084C115.599 21.8089 114.202 21.3008 111.688 20.8679L110.188 20.578C106.521 19.8517 103.8 18.3989 103.8 15.1678C103.8 11.9367 106.593 9.90434 110.608 9.90434V9.90076Z" fill="white"/>
<path id="Vector_3" d="M64.3072 28.2318H61.0254V2.81958H64.3072V28.2318Z" fill="white"/>
<path id="Vector_4" d="M76.7373 9.90076C81.9042 9.90076 85.6057 13.6399 85.6057 19.3436C85.6057 25.0472 81.9042 28.747 76.7373 28.747C71.5704 28.747 67.9033 25.0078 67.9033 19.3436C67.9033 13.6793 71.5704 9.90076 76.7373 9.90076ZM76.7373 25.7234C80.0535 25.7234 82.3239 23.2187 82.3239 19.3328C82.3239 15.4469 80.0535 12.9064 76.7373 12.9064C73.4211 12.9064 71.1851 15.4863 71.1851 19.3328C71.1851 23.1794 73.4177 25.7234 76.7373 25.7234Z" fill="white"/>
<path id="Vector_5" d="M86.957 10.4089H91.9141V4.30811H95.1959V10.4089H100.504V13.2034H95.1959V24.3459C95.1959 25.0722 95.5468 25.4372 96.1729 25.4372H99.8399V28.2318H95.0927C93.1732 28.2318 91.9141 26.9257 91.9141 24.8898V13.2034H86.957V10.4089Z" fill="white"/>
<path id="Vector_6" d="M175.71 10.4089V27.5412C175.71 32.4433 172.429 36.0036 167.121 36.0036C162.511 36.0036 159.928 33.7887 158.252 30.9906L161.08 29.248C162.057 31.2446 163.942 33.0266 166.945 33.0266C169.948 33.0266 172.425 31.1731 172.425 27.3265V25.0401H172.078C171.101 26.6395 169.284 28.2712 165.934 28.2712C161.606 28.2712 157.974 24.6751 157.974 19.0824C157.974 13.4897 161.606 9.89368 165.934 9.89368C169.284 9.89368 171.101 11.4931 172.147 13.2715H172.497V10.4018H175.71V10.4089ZM172.463 19.086C172.463 15.2717 170.089 12.8779 166.842 12.8779C163.595 12.8779 161.29 15.2752 161.29 19.086C161.29 22.8968 163.595 25.3335 166.842 25.3335C170.089 25.3335 172.463 22.9003 172.463 19.086Z" fill="white"/>
<path id="Vector_7" d="M188.131 9.90076C193.298 9.90076 196.999 13.6399 196.999 19.3436C196.999 25.0472 193.298 28.747 188.131 28.747C182.964 28.747 179.297 25.0078 179.297 19.3436C179.297 13.6793 182.964 9.90076 188.131 9.90076ZM188.131 25.7234C191.447 25.7234 193.717 23.2187 193.717 19.3328C193.717 15.4469 191.447 12.9064 188.131 12.9064C184.815 12.9064 182.579 15.4863 182.579 19.3328C182.579 23.1794 184.811 25.7234 188.131 25.7234Z" fill="white"/>
<path id="Vector_8" d="M139.283 9.90076C134.123 9.90076 130.463 13.6471 130.449 19.3436V28.2389H133.731V19.3436C133.738 15.5078 135.97 12.9172 139.283 12.9172C142.596 12.9172 144.863 15.429 144.87 19.3436V28.2389H148.152V19.3436C148.145 13.6578 144.443 9.90076 139.283 9.90076Z" fill="white"/>
<path id="Vector_9" d="M24.7375 24.1205L21.9166 22.3707L13.0001 27.9062C11.8614 28.6111 10.4442 28.6111 9.30551 27.9062L2.08489 23.4263L0.966881 24.124C-0.319689 24.922 -0.319689 26.8542 0.966881 27.645L10.0726 33.2949C11.7823 34.354 13.9186 34.354 15.6317 33.2949L24.7375 27.645C26.024 26.847 26.024 24.9148 24.7375 24.124V24.1205Z" fill="#D7AD5C"/>
<path id="Vector_10" d="M24.7369 17.1538L21.9161 15.4041L12.9995 20.9395C11.8609 21.6444 10.4436 21.6444 9.30492 20.9395L2.08431 16.4596L0.959418 17.1574C-0.323712 17.9553 -0.323712 19.8875 0.959418 20.6783L10.0652 26.3282C11.7749 27.3874 13.9111 27.3874 15.6243 26.3282L24.73 20.6783C26.0131 19.8803 26.0131 17.9481 24.73 17.1574H24.7369V17.1538Z" fill="#D7AD5C"/>
<path id="Vector_11" d="M9.30206 14.8887L8.45581 12.9923C8.39389 12.8456 8.28037 12.7239 8.14965 12.6452L7.77812 12.4126L5.60059 13.7723L6.55003 14.3591L7.58892 13.7115L8.34229 15.4827L9.30549 14.8887H9.29861H9.30206Z" fill="#D7AD5C"/>
<path id="Vector_12" d="M24.7379 10.1621L15.1575 4.2223C13.7333 3.33492 11.9582 3.33492 10.5409 4.2223L0.970787 10.1621C-0.315783 10.96 -0.315783 12.8922 0.970787 13.6901L10.5444 19.6299C11.9686 20.5173 13.7436 20.5173 15.1609 19.6299L24.7345 13.6901C26.0176 12.8922 26.0176 10.96 24.7345 10.1621H24.7414H24.7379ZM12.1027 14.8602L9.34381 16.5742C9.05829 16.7495 8.59733 16.7495 8.3118 16.5742L3.64025 13.6687C3.35473 13.4934 3.35473 13.2035 3.64025 13.0282L6.39915 11.3142C6.68467 11.1389 7.14564 11.1389 7.43116 11.3142L12.1027 14.2197C12.3882 14.3951 12.3882 14.6849 12.1027 14.8602ZM12.6256 13.8941L7.95404 10.9886C7.66852 10.8133 7.66852 10.5235 7.95404 10.3481L10.7129 8.63419C10.9985 8.45886 11.4594 8.45886 11.745 8.63419L16.4165 11.5397C16.702 11.715 16.702 12.0048 16.4165 12.1802L13.6576 13.8941C13.3721 14.0694 12.9111 14.0694 12.6256 13.8941ZM16.3959 16.7101C16.0828 16.9069 15.5634 16.9069 15.2503 16.7101C14.9373 16.5133 14.9373 16.1949 15.2503 15.9981C15.5634 15.8013 16.0794 15.8013 16.3959 15.9981C16.7089 16.1949 16.7089 16.5133 16.3959 16.7101ZM12.261 8.30858C11.9754 8.13325 11.9754 7.84341 12.261 7.66808L15.0199 5.95414C15.3054 5.77881 15.7663 5.77881 16.0519 5.95414L20.7234 8.85962C21.0089 9.03495 21.0089 9.32478 20.7234 9.50011L17.9645 11.2141C17.679 11.3894 17.218 11.3894 16.9325 11.2141L12.261 8.30858ZM18.6284 15.3182C18.3154 15.515 17.796 15.515 17.4829 15.3182C17.1699 15.1214 17.1699 14.803 17.4829 14.6062C17.796 14.4094 18.312 14.4094 18.6284 14.6062C18.9415 14.803 18.9415 15.1214 18.6284 15.3182ZM20.8713 13.9227C20.5583 14.1195 20.0423 14.1195 19.7258 13.9227C19.4128 13.7259 19.4128 13.4075 19.7258 13.2107C20.0389 13.0139 20.5583 13.0139 20.8713 13.2107C21.1844 13.4075 21.1844 13.7259 20.8713 13.9227Z" fill="#D7AD5C"/>
<path id="Vector_13" d="M13.6097 12.2016L12.7634 10.3052C12.7015 10.1585 12.588 10.0368 12.4573 9.9545L12.0857 9.72192L9.9082 11.0816L10.8577 11.6685L11.8965 11.0208L12.6499 12.792L13.6131 12.198H13.6062L13.6097 12.2016Z" fill="#D7AD5C"/>
<path id="Vector_14" d="M17.9222 9.52151L17.0759 7.62507C17.014 7.47837 16.9005 7.35671 16.7698 7.27799L16.3982 7.04541L14.2207 8.40512L15.1701 8.99194L16.209 8.34429L16.9624 10.1155L17.9256 9.52151H17.9187H17.9222Z" fill="#D7AD5C"/>
<path id="Vector_15" d="M21.3522 1.71394C21.3522 0.769307 20.6126 0 19.7044 0C18.7962 0 18.0566 0.769307 18.0566 1.71394C18.0566 2.46894 18.5314 3.10943 19.1884 3.33486L19.1402 7.77895H20.131L20.1791 3.34201C20.8568 3.1309 21.3453 2.48683 21.3453 1.70679L21.3522 1.71394Z" fill="#D7AD5C"/>
<path id="Vector_16" d="M155.252 8.09028C155.252 8.09028 154.471 8.34433 154.106 8.64132C154.072 8.28708 153.786 7.73247 153.38 7.56787C152.974 7.72889 152.689 8.28708 152.655 8.64132C152.3 8.35149 151.509 8.09028 151.509 8.09028C151.389 8.44452 151.196 9.21025 151.991 9.60743C152.458 9.8257 152.995 9.89011 153.353 9.89726H153.408C153.759 9.89011 154.295 9.81854 154.77 9.60743C155.565 9.20667 155.369 8.44452 155.252 8.09028Z" fill="white"/>
<path id="Vector_17" d="M153.381 15.5794C152.424 15.5794 150.453 12.928 150.453 11.6363C150.453 10.3445 151.626 9.45715 153.381 9.45715C155.135 9.45715 156.305 10.3374 156.305 11.6363C156.305 12.9351 154.337 15.5794 153.381 15.5794ZM152.445 12.1086C152.214 12.1086 152.032 12.3054 152.032 12.538C152.032 12.7705 152.221 12.9673 152.445 12.9673C152.669 12.9673 152.858 12.7705 152.858 12.538C152.858 12.3054 152.669 12.1086 152.445 12.1086ZM151.781 11.0172C151.55 11.0172 151.368 11.214 151.368 11.4466C151.368 11.6792 151.557 11.876 151.781 11.876C152.005 11.876 152.194 11.6792 152.194 11.4466C152.194 11.214 152.005 11.0172 151.781 11.0172ZM153.116 11.0172C152.885 11.0172 152.703 11.214 152.703 11.4466C152.703 11.6792 152.892 11.876 153.116 11.876C153.339 11.876 153.529 11.6792 153.529 11.4466C153.529 11.214 153.339 11.0172 153.116 11.0172Z" fill="white"/>
<path id="Vector_18" d="M124.153 15.7297C123.238 15.7297 122.372 15.4112 121.666 14.8208C121.484 14.667 121.463 14.3986 121.625 14.2269L126.723 8.97409C126.892 8.80592 127.157 8.82739 127.294 9.02419C127.817 9.75056 128.116 10.6523 128.116 11.5969C128.116 12.7025 127.704 13.7402 126.95 14.5167C126.197 15.2931 125.206 15.7297 124.143 15.7297H124.15H124.153ZM123.916 13.1534C123.796 13.1534 123.686 13.2035 123.603 13.2929C123.428 13.4754 123.428 13.7653 123.603 13.9478C123.686 14.0336 123.799 14.0873 123.916 14.0873C124.033 14.0873 124.147 14.0372 124.229 13.9478C124.312 13.8583 124.363 13.7438 124.363 13.6221C124.363 13.5005 124.315 13.3824 124.229 13.2965C124.147 13.2107 124.033 13.157 123.916 13.157V13.1534ZM125.856 12.8314C125.736 12.8314 125.626 12.8815 125.543 12.9709C125.461 13.0604 125.409 13.1749 125.409 13.2965C125.409 13.4182 125.457 13.5363 125.543 13.6221C125.629 13.708 125.739 13.7617 125.856 13.7617C125.973 13.7617 126.087 13.7116 126.169 13.6221C126.252 13.5363 126.303 13.4182 126.303 13.2965C126.303 13.1749 126.255 13.0568 126.169 12.9709C126.087 12.885 125.973 12.8314 125.856 12.8314ZM126.087 10.8956C125.966 10.8956 125.856 10.9457 125.774 11.0351C125.598 11.2176 125.598 11.5074 125.774 11.6899C125.856 11.7758 125.97 11.8295 126.087 11.8295C126.204 11.8295 126.317 11.7794 126.4 11.6899C126.575 11.5074 126.575 11.2176 126.4 11.0351C126.317 10.9492 126.204 10.8956 126.087 10.8956Z" fill="white"/>
</g>
<defs>
<clipPath id="clip0_574_1199">
<rect width="197" height="36" fill="white"/>
</clipPath>
</defs>
</svg>
