<svg width="28" height="28" viewBox="0 0 28 28" fill="none" xmlns="http://www.w3.org/2000/svg">
<path d="M22.0497 8.16666C23.1049 9.91804 23.5557 11.9675 23.333 14V15.1667C23.3316 16.395 23.6535 17.6021 24.2663 18.6667M9.33301 12.8333C9.33301 11.5957 9.82467 10.4087 10.6998 9.5335C11.575 8.65833 12.762 8.16666 13.9997 8.16666C15.2374 8.16666 16.4243 8.65833 17.2995 9.5335C18.1747 10.4087 18.6663 11.5957 18.6663 12.8333V14C18.6663 16.5243 19.4851 18.9805 20.9997 21" stroke="white" stroke-width="2" stroke-linecap="round" stroke-linejoin="round"/>
<path d="M13.9998 12.8333V15.1667C13.9961 18.5026 15.014 21.7597 16.9165 24.5M9.33318 17.5C9.61866 19.9381 10.3294 22.3073 11.4332 24.5M5.71651 22.1667C4.9293 19.5187 4.57474 16.761 4.66651 14V12.8333C4.66204 11.1928 5.09004 9.58014 5.90738 8.15775C6.72473 6.73535 7.90254 5.55352 9.32214 4.73134C10.7417 3.90915 12.353 3.47566 13.9935 3.47455C15.634 3.47344 17.2458 3.90474 18.6665 4.725" stroke="white" stroke-width="2" stroke-linecap="round" stroke-linejoin="round"/>
</svg>
