<svg width="30" height="30" viewBox="0 0 30 30" fill="none" xmlns="http://www.w3.org/2000/svg">
<g clip-path="url(#clip0_541_1263)">
<path d="M15 0C12.0173 0.00334984 9.15781 1.18969 7.04875 3.29875C4.93969 5.40781 3.75335 8.26734 3.75 11.25C3.75 19.1766 13.6928 29.2106 14.1161 29.6339C14.2322 29.75 14.37 29.8421 14.5216 29.9049C14.6733 29.9677 14.8358 30 15 30C15.1642 30 15.3267 29.9677 15.4784 29.9049C15.63 29.8421 15.7678 29.75 15.8839 29.6339C16.3072 29.2106 26.25 19.1766 26.25 11.25C26.2467 8.26734 25.0603 5.40781 22.9513 3.29875C20.8422 1.18969 17.9827 0.00334984 15 0ZM15 26.932C12.6183 24.3402 6.25 16.882 6.25 11.25C6.25 8.92936 7.17187 6.70376 8.81282 5.06282C10.4538 3.42187 12.6794 2.5 15 2.5C17.3206 2.5 19.5462 3.42187 21.1872 5.06282C22.8281 6.70376 23.75 8.92936 23.75 11.25C23.75 16.882 17.3816 24.3403 15 26.932Z" fill="white"/>
<path d="M16.25 6.25H13.75V7.5C13.0872 7.50079 12.4518 7.76443 11.9831 8.2331C11.5144 8.70177 11.2508 9.3372 11.25 10V11.25C11.2508 11.9128 11.5144 12.5482 11.9831 13.0169C12.4518 13.4856 13.0872 13.7492 13.75 13.75H16.25V15H11.25V17.5H13.75V18.75H16.25V17.5C16.9128 17.4992 17.5482 17.2356 18.0169 16.7669C18.4856 16.2982 18.7492 15.6628 18.75 15V13.75C18.7492 13.0872 18.4856 12.4518 18.0169 11.9831C17.5482 11.5144 16.9128 11.2508 16.25 11.25H13.75V10H18.75V7.5H16.25V6.25Z" fill="white"/>
</g>
<defs>
<clipPath id="clip0_541_1263">
<rect width="30" height="30" fill="white"/>
</clipPath>
</defs>
</svg>
