<svg width="28" height="28" viewBox="0 0 28 28" fill="none" xmlns="http://www.w3.org/2000/svg">
<path d="M3.5 22.1667H24.5V24.5H3.5V22.1667ZM7 18.6667C8.28333 18.6667 9.33333 17.6167 9.33333 16.3333C9.33333 15.75 9.1 15.1667 8.75 14.8167L10.2667 11.6667H10.5C11.0833 11.6667 11.6667 11.4333 12.0167 11.0833L15.1667 12.7167V12.8333C15.1667 14.1167 16.2167 15.1667 17.5 15.1667C18.7833 15.1667 19.8333 14.1167 19.8333 12.8333C19.8333 12.25 19.6 11.7833 19.25 11.3167L20.7667 8.16667H21C22.2833 8.16667 23.3333 7.11667 23.3333 5.83333C23.3333 4.55 22.2833 3.5 21 3.5C19.7167 3.5 18.6667 4.55 18.6667 5.83333C18.6667 6.41667 18.9 7 19.25 7.35L17.7333 10.5H17.5C16.9167 10.5 16.3333 10.7333 15.9833 11.0833L12.8333 9.56667V9.33333C12.8333 8.05 11.7833 7 10.5 7C9.21667 7 8.16667 8.05 8.16667 9.33333C8.16667 9.91667 8.4 10.5 8.75 10.85L7.23333 14H7C5.71667 14 4.66667 15.05 4.66667 16.3333C4.66667 17.6167 5.71667 18.6667 7 18.6667Z" fill="white"/>
</svg>
