<svg width="28" height="28" viewBox="0 0 28 28" fill="none" xmlns="http://www.w3.org/2000/svg">
<g clip-path="url(#clip0_541_1246)">
<path d="M27.6872 15.0529L12.9728 0.3385C12.675 0.0406567 12.2579 -0.0189343 11.9005 0.0406567L2.90507 2.06614C2.48804 2.18526 2.1902 2.48316 2.07107 2.90013L0.0456491 11.8956C-0.0734771 12.3126 0.0456491 12.67 0.343492 12.9679L14.9983 27.6227C15.2366 27.861 15.5344 27.9801 15.8323 27.9801C16.1301 27.9801 16.428 27.861 16.6067 27.6227L27.6872 16.6613C28.1042 16.2443 28.1042 15.4699 27.6872 15.0529ZM15.8323 25.2398L2.36892 11.7764L4.15609 4.15115L11.7813 2.36398L25.2447 15.8274L15.8323 25.2398Z" fill="white"/>
<path d="M15.5342 14.8742C16.3682 14.7551 17.2618 14.5763 18.1554 14.2784L17.6788 12.7891C16.7257 13.0869 15.8917 13.4444 15.1768 13.8018C15.2959 12.7295 15.4151 11.8955 15.4151 11.1807H13.8662C13.9258 11.6572 13.9854 12.5508 14.1046 13.8018C13.5684 13.504 12.7939 13.2061 11.6621 12.7891L11.1855 14.2784C12.0195 14.5167 12.8536 14.6955 13.7472 14.8742C13.3897 15.172 12.8536 15.8274 12.0196 16.8401L13.2706 17.7337C13.6876 17.1975 14.1046 16.4826 14.6408 15.4699C15.1769 16.4231 15.6535 17.1975 16.0705 17.7337L17.3215 16.8401C16.5469 15.8869 15.9513 15.2316 15.5342 14.8742Z" fill="white"/>
<path d="M8.38533 6.77232L8.20661 6.5936C7.78959 6.11704 7.01519 6.17657 6.59816 6.5936C6.1216 7.01062 6.18114 7.78503 6.59816 8.20205L6.77688 8.38077C7.01519 8.61908 7.31303 8.7382 7.61087 8.7382C7.84918 8.7382 8.14702 8.61908 8.38533 8.38077C8.86189 7.9638 8.80236 7.18934 8.38533 6.77232Z" fill="white"/>
</g>
<defs>
<clipPath id="clip0_541_1246">
<rect width="28" height="28" fill="white"/>
</clipPath>
</defs>
</svg>
