<svg width="28" height="28" viewBox="0 0 28 28" fill="none" xmlns="http://www.w3.org/2000/svg">
<path d="M14.0003 14.5833C12.9174 14.5833 11.8787 15.0135 11.113 15.7793C10.3472 16.5451 9.91699 17.5837 9.91699 18.6667C9.91699 19.7496 10.3472 20.7882 11.113 21.554C11.8787 22.3198 12.9174 22.75 14.0003 22.75C15.0833 22.75 16.1219 22.3198 16.8877 21.554C17.6535 20.7882 18.0837 19.7496 18.0837 18.6667C18.0837 17.5837 17.6535 16.5451 16.8877 15.7793C16.1219 15.0135 15.0833 14.5833 14.0003 14.5833ZM12.2503 18.6667C12.2503 18.2025 12.4347 17.7574 12.7629 17.4292C13.0911 17.101 13.5362 16.9167 14.0003 16.9167C14.4645 16.9167 14.9096 17.101 15.2378 17.4292C15.566 17.7574 15.7503 18.2025 15.7503 18.6667C15.7503 19.1308 15.566 19.5759 15.2378 19.9041C14.9096 20.2323 14.4645 20.4167 14.0003 20.4167C13.5362 20.4167 13.0911 20.2323 12.7629 19.9041C12.4347 19.5759 12.2503 19.1308 12.2503 18.6667Z" fill="white"/>
<path d="M20.447 5.96867L16.7382 0.768833L3.101 11.6632L2.345 11.655V11.6667H1.75V25.6667H26.25V11.6667H25.1277L22.8947 5.1345L20.447 5.96867ZM22.6625 11.6667H10.9632L19.677 8.69633L21.4527 8.12817L22.6625 11.6667ZM18.1417 6.755L9.14667 9.821L16.2703 4.13L18.1417 6.755ZM4.08333 21.1972V16.1338C4.57587 15.96 5.02326 15.6781 5.39269 15.3089C5.76212 14.9397 6.04423 14.4924 6.21833 14H21.7817C21.9556 14.4927 22.2377 14.9401 22.6071 15.3096C22.9765 15.679 23.424 15.961 23.9167 16.135V21.1983C23.424 21.3723 22.9765 21.6543 22.6071 22.0238C22.2377 22.3932 21.9556 22.8407 21.7817 23.3333H6.22067C6.04588 22.8406 5.76329 22.3932 5.39352 22.0236C5.02375 21.654 4.57613 21.3717 4.08333 21.1972Z" fill="white"/>
</svg>
